<svg width="174" height="36" viewBox="0 0 174 36" fill="none" xmlns="http://www.w3.org/2000/svg">
<rect width="173.475" height="36" fill="#271F47"/>
<path fill-rule="evenodd" clip-rule="evenodd" d="M5.95503 12.8728L21.061 27.9788H5.95503V12.8728Z" fill="#BBD034"/>
<path fill-rule="evenodd" clip-rule="evenodd" d="M50.9578 25.4439C48.1827 25.4439 46.0094 23.159 46.0094 20.2414C46.0094 17.2262 48.0665 15.0379 50.9009 15.0379C53.738 15.0379 55.8772 17.2748 55.8772 20.2414C55.8772 23.2561 53.8082 25.4439 50.9578 25.4439ZM50.9578 12.8103C46.6953 12.8103 43.3563 16.0745 43.3563 20.2414C43.3563 24.3923 46.67 27.6436 50.9009 27.6436C55.1789 27.6436 58.5303 24.3923 58.5303 20.2414C58.5303 16.0048 55.275 12.8103 50.9578 12.8103Z" fill="white"/>
<path fill-rule="evenodd" clip-rule="evenodd" d="M63.9306 20.2414C63.9306 17.2748 65.9485 15.0379 68.6239 15.0379C70.4729 15.0379 71.6241 15.872 72.4974 16.733L74.1001 15.0028C72.6199 13.4875 70.9315 12.8103 68.6523 12.8103C64.5174 12.8103 61.278 16.0745 61.278 20.2414C61.278 24.3923 64.505 27.6436 68.6239 27.6436C71.4877 27.6436 73.0604 26.451 74.2049 25.2399L72.6756 23.7318C71.4345 24.9145 70.2301 25.4439 68.7938 25.4439C66.0219 25.4439 63.9306 23.2076 63.9306 20.2414Z" fill="white"/>
<path fill-rule="evenodd" clip-rule="evenodd" d="M93.3063 13.1213H90.4704L96.3019 27.4179H98.8688L104.673 13.1213H101.921L97.5983 24.8494L93.3063 13.1213Z" fill="white"/>
<path fill-rule="evenodd" clip-rule="evenodd" d="M108.233 27.3043H110.886V13.1213H108.233V27.3043Z" fill="white"/>
<path fill-rule="evenodd" clip-rule="evenodd" d="M141.564 25.4439C138.789 25.4439 136.616 23.159 136.616 20.2414C136.616 17.2262 138.673 15.0379 141.507 15.0379C144.345 15.0379 146.484 17.2748 146.484 20.2414C146.484 23.2561 144.415 25.4439 141.564 25.4439ZM141.564 12.8103C137.302 12.8103 133.963 16.0745 133.963 20.2414C133.963 24.3923 137.277 27.6436 141.507 27.6436C145.786 27.6436 149.138 24.3923 149.138 20.2414C149.138 16.0048 145.882 12.8103 141.564 12.8103Z" fill="white"/>
<path fill-rule="evenodd" clip-rule="evenodd" d="M37.801 20.7331C37.5665 23.5138 35.5523 25.4439 32.9027 25.4439C30.1277 25.4439 27.9539 23.159 27.9539 20.2414C27.9539 17.2262 30.011 15.0379 32.8454 15.0379C35.4815 15.0379 37.565 17.017 37.8 19.7435L37.801 20.7331ZM32.9027 12.8103C28.6403 12.8103 25.3012 16.0745 25.3012 20.2414C25.3012 24.3923 28.615 27.6436 32.8454 27.6436C34.4336 27.6436 35.9391 27.2004 37.1993 26.3622L37.801 25.9614V27.5945H40.5771V7.2262H37.801V14.4584L37.2003 14.0628C35.9577 13.2432 34.4713 12.8103 32.9027 12.8103Z" fill="white"/>
<path fill-rule="evenodd" clip-rule="evenodd" d="M158.217 13.1626C157.108 13.1626 156.021 13.4358 155.071 13.9513L154.499 14.2627V12.7133H151.845L151.842 19.3443L151.843 27.562H154.5V19.2679C154.565 17.0336 156.074 15.4774 158.171 15.4774C159.207 15.4774 160.163 15.8824 160.86 16.6173C161.555 17.3497 161.938 18.3547 161.936 19.4471V27.562H164.577V19.4063C164.577 15.9056 161.784 13.1626 158.217 13.1626Z" fill="white"/>
<path fill-rule="evenodd" clip-rule="evenodd" d="M128.419 27.3043H131.071V13.1213H128.419V27.3043Z" fill="white"/>
<path fill-rule="evenodd" clip-rule="evenodd" d="M87.6576 15.0028C86.1773 13.4874 84.489 12.8103 82.2097 12.8103C79.3515 12.8486 77.2748 14.6526 77.2748 17.0997C77.2748 18.2917 77.7308 19.2074 78.6693 19.9C79.5173 20.4914 80.5937 20.87 81.5363 21.1633C81.5817 21.1793 81.6241 21.1912 81.6659 21.2036C81.7268 21.2207 81.7806 21.2361 81.827 21.2516L81.9153 21.2806C83.6672 21.8539 85.179 22.3486 85.179 23.6305C85.179 24.1837 84.8753 25.4723 82.0589 25.4878C80.6071 25.4878 79.2601 24.898 78.0242 23.7343L76.4949 25.2419C78.1027 26.9262 79.7947 27.6472 82.1178 27.6472L82.6059 27.6368C85.4708 27.5976 87.5491 25.7935 87.5491 23.347C87.5491 22.1581 87.0956 21.2444 86.1629 20.5534C85.306 19.9548 84.2302 19.5762 83.2882 19.2833C83.2479 19.2689 83.2107 19.2586 83.1735 19.2482L83.1213 19.2327L82.9029 19.164C81.1541 18.5913 79.6449 18.097 79.6449 16.8161C79.6449 15.7444 80.651 15.0477 82.2077 15.0405C84.0376 15.0405 85.1836 15.873 86.0549 16.733L87.6576 15.0028Z" fill="white"/>
<path fill-rule="evenodd" clip-rule="evenodd" d="M125.102 15.0028C123.622 13.4874 121.934 12.8103 119.654 12.8103C116.796 12.8486 114.719 14.6526 114.719 17.0997C114.719 18.2917 115.176 19.2074 116.114 19.9C116.962 20.4914 118.038 20.87 118.981 21.1633C119.026 21.1793 119.069 21.1912 119.111 21.2036C119.172 21.2207 119.225 21.2361 119.272 21.2516L119.36 21.2806C121.112 21.8539 122.624 22.3486 122.624 23.6305C122.624 24.1837 122.32 25.4723 119.504 25.4878C118.052 25.4878 116.705 24.898 115.469 23.7343L113.94 25.2419C115.547 26.9262 117.239 27.6472 119.562 27.6472L120.051 27.6368C122.915 27.5976 124.994 25.7935 124.994 23.347C124.994 22.1581 124.54 21.2444 123.608 20.5534C122.751 19.9548 121.675 19.5762 120.733 19.2833C120.693 19.2689 120.655 19.2586 120.618 19.2482L120.566 19.2327L120.348 19.164C118.599 18.5913 117.09 18.097 117.09 16.8161C117.09 15.7444 118.096 15.0477 119.652 15.0405C121.482 15.0405 122.628 15.873 123.5 16.733L125.102 15.0028Z" fill="white"/>
<path fill-rule="evenodd" clip-rule="evenodd" d="M109.558 10.0023C110.287 10.0023 110.88 9.40936 110.88 8.6801C110.88 7.95135 110.287 7.35843 109.558 7.35843C108.829 7.35843 108.236 7.95135 108.236 8.6801C108.236 9.40936 108.829 10.0023 109.558 10.0023Z" fill="white"/>
<path fill-rule="evenodd" clip-rule="evenodd" d="M129.797 10.0023C130.526 10.0023 131.119 9.40936 131.119 8.6801C131.119 7.95135 130.526 7.35843 129.797 7.35843C129.068 7.35843 128.475 7.95135 128.475 8.6801C128.475 9.40936 129.068 10.0023 129.797 10.0023Z" fill="white"/>
</svg>
