<svg width="68" height="68" viewBox="0 0 68 68" fill="none" xmlns="http://www.w3.org/2000/svg">
<rect x="1.5" y="1.5" width="65" height="65" rx="32.5" fill="#BBD02D" stroke="white" stroke-width="3"/>
<rect x="30.9485" y="19.125" width="3.21462" height="26.0742" fill="#271F47"/>
<path fill-rule="evenodd" clip-rule="evenodd" d="M24.3403 45.1992C29.5678 45.1992 33.8056 40.9615 33.8056 35.734C33.8056 30.5064 29.5678 26.2687 24.3403 26.2687C19.1127 26.2687 14.875 30.5064 14.875 35.734C14.875 40.9615 19.1127 45.1992 24.3403 45.1992ZM24.5192 42.3417C28.07 42.3417 30.9485 39.4632 30.9485 35.9125C30.9485 32.3617 28.07 29.4832 24.5192 29.4832C20.9685 29.4832 18.09 32.3617 18.09 35.9125C18.09 39.4632 20.9685 42.3417 24.5192 42.3417Z" fill="#271F47"/>
<path fill-rule="evenodd" clip-rule="evenodd" d="M51.665 26.6257H55.594L48.0932 45.1991H48.0928L48.0929 45.1992H44.1639L36.6631 26.6258H40.5921L46.1285 40.3351L51.665 26.6257Z" fill="#271F47"/>
</svg>
