<svg width="108" height="135" viewBox="0 0 108 135" fill="none" xmlns="http://www.w3.org/2000/svg">
<path d="M50.4447 0.04028C34.0056 0.342831 18.6819 3.27379 9.27596 7.91607C5.73101 9.66519 3.37716 11.3954 1.74175 13.4471C1.13675 14.2035 0.333226 15.7635 0.134708 16.5766C-0.0449027 17.3424 -0.0449027 70.27 0.134708 71.8868C1.36363 82.495 6.83703 95.9302 14.2956 106.633C22.5294 118.461 32.7577 127.055 44.3852 131.943C47.0888 133.078 51.4467 134.496 53.725 134.988C53.9329 135.035 54.4434 134.95 55.4738 134.676C65.1728 132.151 73.8225 127.414 81.7821 120.286C83.4269 118.811 86.8017 115.369 88.2292 113.705C94.6384 106.245 99.8188 97.632 103.506 88.2907C105.302 83.7525 106.748 78.8076 107.438 74.8177C108.005 71.622 107.958 74.0897 107.986 44.4208C108.015 17.4464 108.015 17.2857 107.826 16.5388C106.899 12.8798 102.938 9.56119 96.0564 6.69641C86.7828 2.82942 72.1398 0.276649 58.1018 0.0686454C56.3624 0.0497359 54.6986 0.0119143 54.415 0.00245961C54.1314 -0.00699512 52.3448 0.0119159 50.4447 0.04028ZM59.3307 6.08186C73.7374 6.59241 86.1967 8.94663 95.1111 12.8325C98.3914 14.2696 101.18 16.1417 101.842 17.3519C102.002 17.6544 102.012 18.6945 102.04 43.1444C102.069 68.9369 102.05 70.4686 101.728 72.681C100.622 80.1313 97.1341 89.3969 92.3413 97.6036C87.7281 105.498 82.094 112.268 75.6375 117.648C71.9129 120.758 67.054 123.822 62.8284 125.731C61.7791 126.204 60.0964 126.913 60.0208 126.913C60.0019 126.913 59.9924 122.659 59.9924 117.459V108.004H53.9896H47.9869V117.459C47.9869 122.659 47.9679 126.913 47.949 126.913C47.7978 126.913 44.8862 125.609 43.4493 124.899C32.1716 119.302 22.104 109.186 14.8344 96.1382C12.2821 91.5715 10.2591 86.986 8.67096 82.2302C7.49876 78.732 6.79922 75.9429 6.27929 72.785L6.06187 71.4613L6.04296 44.5815C6.0146 18.2028 6.0146 17.7017 6.19422 17.3519C6.44945 16.8413 7.6311 15.754 8.67096 15.0733C9.16252 14.7518 10.2591 14.1278 11.1193 13.6929C21.7258 8.33208 40.2541 5.40112 59.3307 6.08186Z" fill="black"/>
<path d="M76.6385 27.0826C70.6981 27.658 65.6731 31.2762 61.4606 38.0055C61.0497 38.6589 60.7321 39.2148 60.7508 39.2441C60.7695 39.2636 61.2271 38.9807 61.7595 38.6101C66.6351 35.2065 70.9877 33.412 74.7798 33.2462C78.245 33.0902 80.7202 34.1922 83.5596 37.157C85.0167 38.6882 85.7733 39.7024 87.2677 42.1406C88.4726 44.1008 88.9209 44.6177 89.8082 45.0663C91.1065 45.7295 92.4795 45.7295 93.7592 45.0566C95.375 44.2179 96.2904 42.5404 96.1783 40.6289C96.1036 39.3318 95.9167 38.9222 94.5718 37.157C94.2168 36.6889 93.591 35.8697 93.1894 35.343C88.566 29.2867 82.9338 26.4682 76.6385 27.0826Z" fill="black"/>
<path d="M28.6358 27.0943C25.3661 27.4352 22.1549 28.789 19.217 31.0583C18.0165 31.9932 16.0058 34.0483 14.8248 35.5481C14.2587 36.2689 13.5267 37.1844 13.1851 37.5934C12.0626 38.9472 11.6527 40.2036 11.8674 41.5866C12.2676 44.1871 14.8639 46.0181 17.343 45.4629C18.28 45.2487 19.0609 44.8591 19.5977 44.3234C19.8417 44.0799 20.5054 43.1644 21.0617 42.2879C24.1851 37.3792 26.9278 34.8372 30.3049 33.7171C31.5347 33.3081 32.5595 33.1815 34.1407 33.2496C38.367 33.4249 42.4956 35.0904 48.6447 39.1128L48.9375 39.3076L48.6544 38.8206C47.2099 36.337 44.5648 33.1912 42.398 31.3797C38.5036 28.1364 33.5356 26.5878 28.6358 27.0943Z" fill="black"/>
<path d="M78.6431 45.6476C75.219 46.0768 71.8599 47.454 69.7257 49.332L69.1875 49.797L69.6886 50.2083C72.0362 52.1399 74.8293 53.3382 78.1698 53.839C79.571 54.0537 82.429 54.0537 83.8487 53.839C87.1614 53.3382 90.0937 52.0595 92.4506 50.0921L92.8125 49.788L92.1258 49.2157C89.8617 47.3288 86.6696 46.05 83.227 45.6387C82.3084 45.5313 79.5617 45.5403 78.6431 45.6476Z" fill="#FF0000"/>
<path d="M24.4413 45.6908C21.0295 46.128 17.8608 47.4574 15.5614 49.4203L15.1875 49.7416L15.7483 50.2412C16.4681 50.8836 17.7486 51.6956 18.889 52.2487C24.2263 54.8006 31.4049 54.5418 36.4057 51.6153C37.0974 51.2137 38.4434 50.2412 38.7238 49.9378C38.8827 49.7683 38.8734 49.7505 38.3126 49.2687C36.2001 47.4396 32.9472 46.1012 29.5635 45.6819C28.2643 45.5213 25.7312 45.5213 24.4413 45.6908Z" fill="#FF0000"/>
<path d="M11.8221 72.8505C11.9556 73.0566 15.3397 78.3945 19.3529 84.7063L26.6453 96.1781L37.2742 96.1875H47.903L50.9058 93.2376L53.9085 90.2877L56.9113 93.2376L59.9141 96.1875H70.5524H81.1813L88.6167 84.519C96.9386 71.4365 96.2046 72.5883 96.1474 72.5883C96.1284 72.5883 92.0675 75.8941 87.1296 79.9397L78.1499 87.291H72.0776H66.0149L61.4869 82.8427L56.959 78.3945H53.9085H50.8581L46.3301 82.8427L41.8021 87.291H35.7489H29.6957L20.6398 79.8741C13.7382 74.2178 11.6506 72.5509 11.8221 72.8505Z" fill="#BBD02D"/>
</svg>
